<svg xmlns="http://www.w3.org/2000/svg" width="214" height="112" viewBox="0 0 214 112" fill="none">
  <path d="M208.533 76.9612H206.144V67.6352H204.528C204.067 67.6352 203.684 67.7031 203.378 67.8389C203.075 67.9711 202.849 68.1656 202.697 68.4225C202.546 68.6794 202.471 68.995 202.471 69.3694C202.471 69.7401 202.546 70.0502 202.697 70.2998C202.849 70.5494 203.075 70.7366 203.378 70.8613C203.68 70.9861 204.06 71.0485 204.517 71.0485H207.117V72.9644H204.13C203.263 72.9644 202.522 72.8212 201.906 72.535C201.29 72.2487 200.82 71.8376 200.496 71.3018C200.171 70.7623 200.009 70.1181 200.009 69.3694C200.009 68.6243 200.168 67.9766 200.485 67.426C200.806 66.8718 201.268 66.4442 201.873 66.1433C202.482 65.8387 203.214 65.6863 204.069 65.6863H208.533V76.9612ZM202.421 71.8303H205.004L202.249 76.9612H199.605L202.421 71.8303Z" fill="#2B5A43"/>
  <path d="M189.006 65.6863H191.396V72.7772H191.49L196.385 65.6863H198.482V76.9612H196.086V69.8649H196.003L191.08 76.9612H189.006V65.6863Z" fill="#2B5A43"/>
  <path d="M178.007 76.9612V65.6863H180.402V70.3383H185.264V65.6863H187.654V76.9612H185.264V72.3037H180.402V76.9612H178.007Z" fill="#2B5A43"/>
  <path d="M168.93 76.9612H166.363L170.274 65.6863H173.361L177.266 76.9612H174.7L171.862 68.2628H171.773L168.93 76.9612ZM168.77 72.5295H174.832V74.3903H168.77V72.5295Z" fill="#2B5A43"/>
  <path d="M165.32 65.6863V76.9612H162.953V67.6242H158.372V76.9612H156.005V65.6863H165.32Z" fill="#2B5A43"/>
  <path d="M142.059 65.6863H145.013L148.133 73.2617H148.265L151.385 65.6863H154.339V76.9612H152.016V69.6226H151.922L148.99 76.9062H147.408L144.476 69.5951H144.382V76.9612H142.059V65.6863Z" fill="#2B5A43"/>
  <path d="M140.908 71.3238C140.908 72.5533 140.673 73.5994 140.205 74.4619C139.74 75.3244 139.106 75.9832 138.302 76.4383C137.502 76.8897 136.602 77.1154 135.603 77.1154C134.596 77.1154 133.692 76.8879 132.892 76.4328C132.092 75.9777 131.46 75.3189 130.995 74.4564C130.53 73.5939 130.298 72.5497 130.298 71.3238C130.298 70.0943 130.53 69.0483 130.995 68.1858C131.46 67.3233 132.092 66.6663 132.892 66.2149C133.692 65.7598 134.596 65.5322 135.603 65.5322C136.602 65.5322 137.502 65.7598 138.302 66.2149C139.106 66.6663 139.74 67.3233 140.205 68.1858C140.673 69.0483 140.908 70.0943 140.908 71.3238ZM138.479 71.3238C138.479 70.5274 138.359 69.8557 138.12 69.3089C137.884 68.762 137.55 68.3473 137.118 68.0647C136.687 67.7821 136.182 67.6408 135.603 67.6408C135.024 67.6408 134.519 67.7821 134.087 68.0647C133.656 68.3473 133.32 68.762 133.08 69.3089C132.844 69.8557 132.726 70.5274 132.726 71.3238C132.726 72.1203 132.844 72.7919 133.08 73.3388C133.32 73.8856 133.656 74.3004 134.087 74.583C134.519 74.8656 135.024 75.0069 135.603 75.0069C136.182 75.0069 136.687 74.8656 137.118 74.583C137.55 74.3004 137.884 73.8856 138.12 73.3388C138.359 72.7919 138.479 72.1203 138.479 71.3238Z" fill="#2B5A43"/>
  <path d="M127.584 76.9612L123.944 72.1551H123.125V76.9612H120.73V65.6863H123.125V70.1897H123.607L127.368 65.6863H130.35L125.93 70.9164L130.554 76.9612H127.584Z" fill="#2B5A43"/>
  <path d="M203.498 58.6899H201.108V49.3639H199.493C199.032 49.3639 198.649 49.4318 198.343 49.5676C198.04 49.6997 197.813 49.8942 197.662 50.1511C197.511 50.408 197.435 50.7237 197.435 51.098C197.435 51.4687 197.511 51.7789 197.662 52.0284C197.813 52.278 198.04 52.4652 198.343 52.59C198.645 52.7148 199.025 52.7772 199.482 52.7772H202.082V54.693H199.095C198.228 54.693 197.487 54.5499 196.871 54.2636C196.255 53.9773 195.785 53.5663 195.461 53.0304C195.136 52.4909 194.974 51.8468 194.974 51.098C194.974 50.353 195.132 49.7052 195.449 49.1547C195.77 48.6005 196.233 48.1729 196.838 47.8719C197.446 47.5673 198.178 47.415 199.034 47.415H203.498V58.6899ZM197.386 53.5589H199.969L197.214 58.6899H194.57L197.386 53.5589Z" fill="#2B5A43"/>
  <path d="M185.726 58.6899H183.159L187.07 47.415H190.156L194.062 58.6899H191.495L188.657 49.9915H188.569L185.726 58.6899ZM185.565 54.2581H191.628V56.1189H185.565V54.2581Z" fill="#2B5A43"/>
  <path d="M172.774 58.6899V47.415H175.169V52.067H180.031V47.415H182.421V58.6899H180.031V54.0324H175.169V58.6899H172.774Z" fill="#2B5A43"/>
  <path d="M171.429 58.6899H169.039V49.3639H167.424C166.963 49.3639 166.58 49.4318 166.274 49.5676C165.971 49.6997 165.744 49.8942 165.593 50.1511C165.442 50.408 165.366 50.7237 165.366 51.098C165.366 51.4687 165.442 51.7789 165.593 52.0284C165.744 52.278 165.971 52.4652 166.274 52.59C166.576 52.7148 166.956 52.7772 167.413 52.7772H170.013V54.693H167.026C166.159 54.693 165.418 54.5499 164.802 54.2636C164.186 53.9773 163.716 53.5663 163.392 53.0304C163.067 52.4909 162.905 51.8468 162.905 51.098C162.905 50.353 163.063 49.7052 163.381 49.1547C163.701 48.6005 164.164 48.1729 164.769 47.8719C165.377 47.5673 166.109 47.415 166.965 47.415H171.429V58.6899ZM165.317 53.5589H167.9L165.145 58.6899H162.501L165.317 53.5589Z" fill="#2B5A43"/>
  <path d="M152.52 49.3804V47.415H161.824V49.3804H158.356V58.6899H155.988V49.3804H152.52Z" fill="#2B5A43"/>
  <path d="M145.125 48.6261H147.658C148.565 48.6261 149.369 48.8169 150.07 49.1987C150.774 49.5804 151.326 50.118 151.724 50.8117C152.126 51.5017 152.327 52.3128 152.327 53.2451C152.327 54.1479 152.126 54.9352 151.724 55.6068C151.326 56.2785 150.774 56.8015 150.07 57.1759C149.369 57.5466 148.565 57.7319 147.658 57.7319H145.125C144.214 57.7319 143.406 57.5484 142.702 57.1814C141.998 56.8107 141.444 56.2895 141.042 55.6179C140.644 54.9462 140.445 54.1534 140.445 53.2396C140.445 52.3073 140.646 51.4962 141.048 50.8062C141.454 50.1125 142.009 49.5767 142.713 49.1987C143.417 48.8169 144.221 48.6261 145.125 48.6261ZM145.125 50.619C144.638 50.619 144.208 50.7163 143.836 50.9108C143.467 51.1017 143.179 51.3916 142.973 51.7806C142.766 52.1697 142.663 52.656 142.663 53.2396C142.663 53.7974 142.768 54.2617 142.978 54.6324C143.192 55.0031 143.484 55.2802 143.852 55.4637C144.221 55.6472 144.645 55.739 145.125 55.739H147.675C148.158 55.739 148.58 55.6454 148.942 55.4582C149.307 55.271 149.589 54.9921 149.788 54.6214C149.991 54.2507 150.092 53.7919 150.092 53.2451C150.092 52.6615 149.991 52.1752 149.788 51.7862C149.589 51.3971 149.307 51.1053 148.942 50.9108C148.58 50.7163 148.158 50.619 147.675 50.619H145.125ZM147.526 47.2167V59.1523H145.252V47.2167H147.526Z" fill="#2B5A43"/>
  <path d="M131.729 58.6899V47.415H139.363V49.3804H134.124V52.067H138.97V54.0324H134.124V56.7245H139.385V58.6899H131.729Z" fill="#2B5A43"/>
  <path d="M120.73 58.6899V47.415H123.125V52.067H127.988V47.415H130.377V58.6899H127.988V54.0324H123.125V58.6899H120.73Z" fill="#2B5A43"/>
  <path d="M213.015 40.4185H210.625V31.0925H209.01C208.549 31.0925 208.166 31.1604 207.859 31.2962C207.557 31.4283 207.33 31.6228 207.179 31.8798C207.028 32.1367 206.952 32.4523 206.952 32.8267C206.952 33.1974 207.028 33.5075 207.179 33.7571C207.33 34.0067 207.557 34.1938 207.859 34.3186C208.162 34.4434 208.542 34.5058 208.999 34.5058H211.599V36.4217H208.612C207.745 36.4217 207.004 36.2785 206.388 35.9922C205.772 35.706 205.302 35.2949 204.977 34.759C204.653 34.2195 204.491 33.5754 204.491 32.8267C204.491 32.0816 204.649 31.4338 204.966 30.8833C205.287 30.3291 205.75 29.9015 206.355 29.6006C206.963 29.2959 207.695 29.1436 208.551 29.1436H213.015V40.4185ZM206.902 35.2876H209.486L206.731 40.4185H204.087L206.902 35.2876Z" fill="#2B5A43"/>
  <path d="M195.242 40.4185H192.676L196.587 29.1436H199.673L203.579 40.4185H201.012L198.174 31.7201H198.086L195.242 40.4185ZM195.082 35.9867H201.145V37.8475H195.082V35.9867Z" fill="#2B5A43"/>
  <path d="M189.738 40.4185L186.098 35.6124H185.279V40.4185H182.884V29.1436H185.279V33.647H185.761L189.522 29.1436H192.504L188.084 34.3737L192.708 40.4185H189.738Z" fill="#2B5A43"/>
  <path d="M181.79 33.0909H179.367C179.322 32.7789 179.232 32.5018 179.096 32.2596C178.959 32.0137 178.784 31.8045 178.57 31.632C178.356 31.4595 178.109 31.3274 177.829 31.2356C177.552 31.1439 177.252 31.098 176.927 31.098C176.341 31.098 175.83 31.243 175.395 31.5329C174.96 31.8192 174.622 32.2376 174.383 32.7881C174.143 33.335 174.023 33.9993 174.023 34.781C174.023 35.5848 174.143 36.2601 174.383 36.807C174.626 37.3539 174.965 37.7668 175.4 38.0457C175.836 38.3246 176.339 38.4641 176.911 38.4641C177.231 38.4641 177.528 38.4219 177.801 38.3375C178.078 38.2531 178.323 38.1301 178.537 37.9686C178.751 37.8035 178.928 37.6034 179.068 37.3685C179.212 37.1336 179.311 36.8657 179.367 36.5648L181.79 36.5758C181.727 37.0933 181.57 37.5924 181.319 38.0732C181.072 38.5504 180.739 38.9779 180.318 39.356C179.901 39.7303 179.404 40.0276 178.825 40.2478C178.249 40.4644 177.598 40.5726 176.872 40.5726C175.861 40.5726 174.958 40.3451 174.161 39.89C173.369 39.4349 172.742 38.7761 172.281 37.9136C171.823 37.0511 171.595 36.0069 171.595 34.781C171.595 33.5515 171.827 32.5055 172.292 31.643C172.756 30.7805 173.387 30.1235 174.184 29.6721C174.98 29.217 175.876 28.9894 176.872 28.9894C177.528 28.9894 178.137 29.0812 178.697 29.2647C179.262 29.4482 179.761 29.7161 180.196 30.0685C180.632 30.4172 180.986 30.8447 181.259 31.3512C181.535 31.8577 181.712 32.4376 181.79 33.0909Z" fill="#2B5A43"/>
  <path d="M162.098 31.109V29.1436H171.402V31.109H167.934V40.4185H165.566V31.109H162.098Z" fill="#2B5A43"/>
  <path d="M153.209 40.5727V38.6348H153.823C154.129 38.6348 154.376 38.5981 154.564 38.5247C154.752 38.4476 154.902 38.3357 155.012 38.1889C155.127 38.0384 155.222 37.8512 155.3 37.6273L155.438 37.2585L151.323 29.1436H153.801L156.467 34.693L158.696 29.1436H161.141L157.236 38.2054C157.048 38.6238 156.825 39.0128 156.567 39.3725C156.312 39.7322 155.986 40.0221 155.588 40.2423C155.189 40.4626 154.68 40.5727 154.061 40.5727H153.209Z" fill="#2B5A43"/>
  <path d="M148.435 40.4185L144.795 35.6124H143.976V40.4185H141.581V29.1436H143.976V33.647H144.457L148.219 29.1436H151.2L146.781 34.3737L151.405 40.4185H148.435Z" fill="#2B5A43"/>
  <path d="M132.118 40.4185V29.1436H136.588C137.447 29.1436 138.179 29.3069 138.784 29.6336C139.389 29.9566 139.85 30.4062 140.167 30.9824C140.488 31.5549 140.648 32.2156 140.648 32.9643C140.648 33.713 140.486 34.3737 140.161 34.9462C139.837 35.5188 139.367 35.9647 138.751 36.284C138.139 36.6033 137.397 36.763 136.527 36.763H133.678V34.8526H136.14C136.601 34.8526 136.981 34.7737 137.279 34.6159C137.582 34.4544 137.807 34.2324 137.954 33.9498C138.105 33.6635 138.181 33.335 138.181 32.9643C138.181 32.5899 138.105 32.2633 137.954 31.9844C137.807 31.7018 137.582 31.4834 137.279 31.3292C136.977 31.1714 136.593 31.0925 136.129 31.0925H134.513V40.4185H132.118Z" fill="#2B5A43"/>
  <path d="M120.73 29.1436H123.12V36.2345H123.214L128.109 29.1436H130.206V40.4185H127.811V33.3222H127.728L122.805 40.4185H120.73V29.1436Z" fill="#2B5A43"/>
  <mask id="mask0_10487_6823" style="mask-type:luminance" maskUnits="userSpaceOnUse" x="0" y="0" width="95" height="112">
    <path d="M94.1544 0H0V111.289H94.1544V0Z" fill="#2B5A43"/>
  </mask>
  <g >
    <mask id="mask1_10487_6823" style="mask-type:luminance" maskUnits="userSpaceOnUse" x="0" y="0" width="95" height="183">
      <path d="M94.1544 0H0V182.726H94.1544V0Z" fill="#2B5A43"/>
    </mask>
    <g>
      <mask id="mask2_10487_6823" style="mask-type:luminance" maskUnits="userSpaceOnUse" x="0" y="0" width="95" height="183">
        <path d="M94.1544 0H0V182.726H94.1544V0Z" fill="#2B5A43"/>
      </mask>
      <g >
        <path d="M49.805 95.0442V108.573C49.805 108.816 50.0138 109.012 50.258 108.996C53.4643 108.761 56.5486 108.173 59.4871 107.259C59.6644 107.205 59.7825 107.04 59.7825 106.856V73.7107C59.7825 73.4951 59.621 73.3148 59.4083 73.2912C56.4186 72.9619 53.358 72.7424 50.2422 72.6601C50.0019 72.6562 49.805 72.8443 49.805 73.0835V85.0282H44.4755V73.0835C44.4755 72.8443 44.2785 72.6562 44.0422 72.6601C40.9264 72.7424 37.8619 72.9541 34.8722 73.2795C34.6595 73.303 34.494 73.4872 34.494 73.6989V106.946C34.494 107.134 34.6161 107.299 34.7934 107.353C37.7122 108.232 40.7886 108.792 44.0186 109.008C44.2628 109.023 44.4716 108.827 44.4716 108.584V95.0442H49.8011H49.805Z" fill="#2B5A43"/>
        <path d="M31.6658 73.6753C27.8607 74.2124 24.1935 74.9415 20.7193 75.8667C20.5971 75.8981 20.4987 75.9843 20.4475 76.0941L16.1776 85.0085H15.4685V78.0581C15.4685 77.768 15.177 77.5641 14.9013 77.6582C12.3843 78.5481 9.9933 79.5399 7.77169 80.6454C7.33446 80.8649 6.9051 81.0844 6.48363 81.3118C6.28274 81.4216 6.20396 81.6724 6.31425 81.8763C9.59939 88.0466 13.5778 93.4172 18.2416 97.7294C18.4464 97.9215 18.7813 97.8588 18.9073 97.6079L21.4874 92.4333H22.1609V100.768C22.1609 100.905 22.2279 101.03 22.3343 101.109C25.19 103.198 28.2704 104.919 31.5634 106.224C31.8391 106.334 32.1424 106.126 32.1424 105.828V74.0909C32.1424 73.8361 31.914 73.6361 31.6579 73.6714" fill="#2B5A43"/>
        <path d="M83.9918 80.1868C82.9597 79.5517 79.5564 77.6387 77.4057 76.886C77.2009 76.8155 76.9764 76.9017 76.8818 77.0977C76.1413 78.6383 73.0019 85.0203 73.0019 85.0203H72.2889L72.2259 75.8825C72.2259 75.6904 72.092 75.5218 71.9068 75.4748C68.9644 74.7495 65.8959 74.1576 62.7289 73.7028C62.4729 73.6676 62.2444 73.8636 62.2444 74.1223V105.652C62.2444 105.95 62.5517 106.158 62.8274 106.044C66.1007 104.7 69.181 102.947 72.0526 100.819C72.1589 100.74 72.222 100.611 72.222 100.478V95.0324C74.0418 94.8913 75.9877 95.5969 77.063 96.6358C77.063 96.6358 77.063 96.6358 77.067 96.6358C79.2413 94.4954 81.518 91.9355 83.4127 89.3247C83.5427 89.1483 83.5073 88.9052 83.3458 88.7602C82.6998 88.1839 81.8844 87.6037 81.0808 87.149L84.169 80.7395C84.2714 80.5357 84.1887 80.3044 83.9957 80.1868" fill="#2B5A43"/>
        <path d="M63.5955 3.78295C63.8673 3.5987 63.82 3.17925 63.5167 3.0538C59.9558 1.52886 56.1901 0.49002 52.2826 0C48.2254 13.1168 48.2018 28.6838 47.6464 68.3283C48.0245 68.3283 48.4027 68.3362 48.7808 68.3401C50.0492 37.657 50.4431 12.7797 63.5955 3.78295Z" fill="#2B5A43"/>
        <path d="M56.4344 38.8958C61.2794 24.3363 69.1023 17.1429 80.679 16.6685C81.0257 16.6528 81.2069 16.2412 80.9823 15.9746C78.1581 12.666 74.9753 9.77296 71.5011 7.37775C60.3931 11.2117 55.4496 20.7533 52.7041 38.1784C51.42 46.3323 50.4786 56.4503 49.9113 68.3558C50.2895 68.3636 50.6598 68.3832 51.034 68.395C51.6642 58.8376 53.9016 46.497 56.4304 38.8958" fill="#2B5A43"/>
        <path d="M58.8568 50.3504C67.8181 33.0899 83.523 30.7692 92.2519 39.2759C92.5552 39.5739 93.0554 39.2759 92.953 38.8643C91.5389 33.3212 89.3882 28.1466 86.623 23.4895C66.6482 18.0405 54.5121 40.7342 52.1802 68.4341C52.5584 68.4498 52.9404 68.4615 53.3146 68.4811C54.4255 60.8721 55.5638 56.6893 58.8568 50.3465" fill="#2B5A43"/>
        <path d="M93.8708 48.3316C86.3473 39.4446 72.2456 37.1788 62.595 49.3783C59.1208 53.7689 55.7332 60.1901 54.4097 68.5479C54.7958 68.5714 55.1818 68.591 55.5678 68.6184C57.6003 60.2254 62.8707 55.8073 67.7945 54.3294C79.2413 50.8875 90.6408 59.1512 91.6886 68.7987C91.732 69.2064 92.3976 69.128 92.4922 68.7321C93.5754 64.1455 94.1544 59.3198 94.1544 54.3334C94.1544 52.3027 94.056 50.2995 93.8669 48.3277" fill="#2B5A43"/>
        <path d="M41.8718 0C37.9643 0.49002 34.1986 1.52886 30.6377 3.04988C30.3383 3.17925 30.2911 3.59478 30.5629 3.77903C43.7153 12.7797 44.1092 37.6531 45.3775 68.3401C45.7557 68.3362 46.1299 68.3283 46.512 68.3283C45.9526 28.6838 45.929 13.1208 41.8718 0Z" fill="#2B5A43"/>
        <path d="M41.4503 38.1784C38.7048 20.7533 33.7653 11.2117 22.6533 7.37775C19.1791 9.77688 15.9964 12.666 13.1721 15.9786C12.9476 16.2412 13.1248 16.6568 13.4754 16.6685C25.0561 17.1429 32.879 24.3363 37.724 38.8958C40.2529 46.497 42.4942 58.8337 43.1205 68.3911C43.4947 68.3793 43.8689 68.3636 44.2431 68.3519C43.6759 56.4424 42.7344 46.3284 41.4503 38.1745" fill="#2B5A43"/>
        <path d="M7.53534 23.4896C4.77408 28.1467 2.62338 33.3213 1.20533 38.8644C1.10292 39.2721 1.60317 39.5701 1.90648 39.276C10.6314 30.7654 26.3363 33.0861 35.3015 50.3466C38.5945 56.6894 39.7329 60.8722 40.8437 68.4812C41.2218 68.4616 41.6 68.4459 41.9821 68.4342C39.6462 40.7304 27.5101 18.0366 7.53534 23.4896Z" fill="#2B5A43"/>
        <path d="M31.5595 49.3821C21.9089 37.1826 7.81111 39.4485 0.283642 48.3355C0.0985083 50.3073 -0.00390625 52.3105 -0.00390625 54.3411C-0.00390625 59.3236 0.57513 64.1494 1.65836 68.7399C1.7529 69.1397 2.40284 69.2142 2.46192 68.8065C3.81301 59.2962 14.082 51.3148 26.36 54.3372C31.3507 55.5642 36.5502 60.2331 38.5867 68.6262C38.9688 68.5987 39.3587 68.5791 39.7448 68.5556C38.4252 60.2018 35.0337 53.7806 31.5595 49.3861" fill="#2B5A43"/>
      </g>
    </g>
  </g>
</svg>